<?xml version="1.0" encoding="UTF-8" standalone="no"?>
<!DOCTYPE svg PUBLIC "-//W3C//DTD SVG 1.1//EN"
 "http://www.w3.org/Graphics/SVG/1.1/DTD/svg11.dtd">
<!-- Generated by graphviz version 2.40.1 (20161225.0304)
 -->
<!-- Title: G Pages: 1 -->
<svg width="1736pt" height="454pt"
 viewBox="0.00 0.00 1735.88 454.00" xmlns="http://www.w3.org/2000/svg" xmlns:xlink="http://www.w3.org/1999/xlink">
<g id="graph0" class="graph" transform="scale(1 1) rotate(0) translate(4 450)">
<title>G</title>
<polygon fill="#ffffff" stroke="transparent" points="-4,4 -4,-450 1731.8787,-450 1731.8787,4 -4,4"/>
<!-- 1 -->
<g id="node1" class="node">
<title>1</title>
<ellipse fill="none" stroke="#000000" cx="355.4079" cy="-72" rx="71.979" ry="18"/>
<text text-anchor="middle" x="355.4079" y="-67.8" font-family="Times,serif" font-size="14.00" fill="#000000">(typeof(g), Int64)</text>
</g>
<!-- 2 -->
<g id="node2" class="node">
<title>2</title>
<ellipse fill="none" stroke="#000000" cx="1140.7646" cy="-196" rx="166.8278" ry="18"/>
<text text-anchor="middle" x="1140.7646" y="-191.8" font-family="Times,serif" font-size="14.00" fill="#000000">Tuple{Array{Float64,1},Array{Float64,1}}</text>
</g>
<!-- 1&#45;&gt;2 -->
<g id="edge1" class="edge">
<title>1&#45;&gt;2</title>
<path fill="none" stroke="#000000" d="M426.3873,-75.1292C512.7081,-81.2952 661.0432,-99.6089 775.4574,-154 784.8624,-158.471 783.8106,-165.0778 793.4574,-169 852.2328,-192.8966 921.1619,-201.7417 982.0519,-203.8585"/>
<polygon fill="#000000" stroke="#000000" points="982.046,-207.3597 992.1433,-204.1509 982.2489,-200.3627 982.046,-207.3597"/>
<text text-anchor="middle" x="752.1366" y="-156.8" font-family="Times,serif" font-size="14.00" fill="#000000">sample</text>
</g>
<!-- 9 -->
<g id="node9" class="node">
<title>9</title>
<ellipse fill="none" stroke="#000000" cx="1140.7646" cy="-18" rx="43.0215" ry="18"/>
<text text-anchor="middle" x="1140.7646" y="-13.8" font-family="Times,serif" font-size="14.00" fill="#000000">typeof(g)</text>
</g>
<!-- 1&#45;&gt;9 -->
<g id="edge2" class="edge">
<title>1&#45;&gt;9</title>
<path fill="none" stroke="#000000" d="M424.2126,-66.596C499.1208,-60.7698 622.453,-51.3441 728.8158,-44 857.7858,-35.095 1009.5566,-25.8292 1087.9484,-21.1333"/>
<polygon fill="#000000" stroke="#000000" points="1088.2817,-24.6197 1098.0549,-20.5289 1087.8637,-17.6322 1088.2817,-24.6197"/>
<text text-anchor="middle" x="752.1366" y="-46.8" font-family="Times,serif" font-size="14.00" fill="#000000">π1</text>
</g>
<!-- 10 -->
<g id="node10" class="node">
<title>10</title>
<ellipse fill="none" stroke="#000000" cx="1655.004" cy="-80" rx="28.5497" ry="18"/>
<text text-anchor="middle" x="1655.004" y="-75.8" font-family="Times,serif" font-size="14.00" fill="#000000">Int64</text>
</g>
<!-- 1&#45;&gt;10 -->
<g id="edge3" class="edge">
<title>1&#45;&gt;10</title>
<path fill="none" stroke="#000000" d="M427.5971,-72.4444C667.6168,-73.9219 1433.9847,-78.6395 1615.9686,-79.7597"/>
<polygon fill="#000000" stroke="#000000" points="1616.1183,-83.2606 1626.1397,-79.8223 1616.1614,-76.2607 1616.1183,-83.2606"/>
<text text-anchor="middle" x="1140.7646" y="-80.8" font-family="Times,serif" font-size="14.00" fill="#000000">π2</text>
</g>
<!-- 4 -->
<g id="node4" class="node">
<title>4</title>
<ellipse fill="none" stroke="#000000" cx="1655.004" cy="-253" rx="72.7496" ry="18"/>
<text text-anchor="middle" x="1655.004" y="-248.8" font-family="Times,serif" font-size="14.00" fill="#000000">Array{Float64,1}</text>
</g>
<!-- 2&#45;&gt;4 -->
<g id="edge4" class="edge">
<title>2&#45;&gt;4</title>
<path fill="none" stroke="#000000" d="M1292.9598,-203.3588C1373.9302,-208.8569 1474.9259,-218.24 1564.1293,-234 1572.6631,-235.5077 1581.6208,-237.2202 1590.4478,-238.9849"/>
<polygon fill="#000000" stroke="#000000" points="1589.8322,-242.4313 1600.3287,-240.9914 1591.2253,-235.5713 1589.8322,-242.4313"/>
<text text-anchor="middle" x="1535.1005" y="-236.8" font-family="Times,serif" font-size="14.00" fill="#000000">1</text>
</g>
<!-- 3 -->
<g id="node3" class="node">
<title>3</title>
<ellipse fill="none" stroke="#000000" cx="1140.7646" cy="-250" rx="145.4412" ry="18"/>
<text text-anchor="middle" x="1140.7646" y="-245.8" font-family="Times,serif" font-size="14.00" fill="#000000">(Array{Float64,1}, Array{Float64,1})</text>
</g>
<!-- 3&#45;&gt;4 -->
<g id="edge5" class="edge">
<title>3&#45;&gt;4</title>
<path fill="none" stroke="#000000" d="M1286.4061,-250.8497C1378.7746,-251.3885 1494.9463,-252.0662 1571.9126,-252.5153"/>
<polygon fill="#000000" stroke="#000000" points="1572.0164,-256.0158 1582.0367,-252.5743 1572.0573,-249.0159 1572.0164,-256.0158"/>
<text text-anchor="middle" x="1535.1005" y="-254.8" font-family="Times,serif" font-size="14.00" fill="#000000">f</text>
</g>
<!-- 5 -->
<g id="node5" class="node">
<title>5</title>
<ellipse fill="none" stroke="#000000" cx="355.4079" cy="-354" rx="247.5836" ry="18"/>
<text text-anchor="middle" x="355.4079" y="-349.8" font-family="Times,serif" font-size="14.00" fill="#000000">(typeof(f), Array{Float64,1}, Array{Float64,1}, Array{Float64,1})</text>
</g>
<!-- 5&#45;&gt;4 -->
<g id="edge6" class="edge">
<title>5&#45;&gt;4</title>
<path fill="none" stroke="#000000" d="M497.3256,-339.2115C583.0073,-330.6583 694.4212,-320.198 793.4574,-313 1101.776,-290.5913 1179.7359,-299.1701 1488.0717,-277 1521.9306,-274.5655 1530.5075,-274.6817 1564.1293,-270 1572.0407,-268.8984 1580.3103,-267.5826 1588.4999,-266.1777"/>
<polygon fill="#000000" stroke="#000000" points="1589.1803,-269.6118 1598.4204,-264.428 1587.9644,-262.7182 1589.1803,-269.6118"/>
<text text-anchor="middle" x="1140.7646" y="-315.8" font-family="Times,serif" font-size="14.00" fill="#000000">π2</text>
</g>
<!-- 6 -->
<g id="node6" class="node">
<title>6</title>
<ellipse fill="none" stroke="#000000" cx="1140.7646" cy="-354" rx="347.1144" ry="18"/>
<text text-anchor="middle" x="1140.7646" y="-349.8" font-family="Times,serif" font-size="14.00" fill="#000000">LsqFit.LsqFitResult{Array{Float64,1},Array{Float64,1},Array{Float64,2},Array{Float64,1}}</text>
</g>
<!-- 5&#45;&gt;6 -->
<g id="edge7" class="edge">
<title>5&#45;&gt;6</title>
<path fill="none" stroke="#000000" d="M603.0911,-354C660.2617,-354 722.2026,-354 783.0172,-354"/>
<polygon fill="#000000" stroke="#000000" points="783.1625,-357.5001 793.1624,-354 783.1624,-350.5001 783.1625,-357.5001"/>
<text text-anchor="middle" x="752.1366" y="-356.8" font-family="Times,serif" font-size="14.00" fill="#000000">solve</text>
</g>
<!-- 11 -->
<g id="node11" class="node">
<title>11</title>
<ellipse fill="none" stroke="#000000" cx="1140.7646" cy="-408" rx="41.5679" ry="18"/>
<text text-anchor="middle" x="1140.7646" y="-403.8" font-family="Times,serif" font-size="14.00" fill="#000000">typeof(f)</text>
</g>
<!-- 5&#45;&gt;11 -->
<g id="edge8" class="edge">
<title>5&#45;&gt;11</title>
<path fill="none" stroke="#000000" d="M535.5846,-366.3887C715.0161,-378.7261 979.1583,-396.8882 1089.4464,-404.4714"/>
<polygon fill="#000000" stroke="#000000" points="1089.4145,-407.9774 1099.6311,-405.1717 1089.8948,-400.9939 1089.4145,-407.9774"/>
<text text-anchor="middle" x="752.1366" y="-384.8" font-family="Times,serif" font-size="14.00" fill="#000000">π1</text>
</g>
<!-- 6&#45;&gt;4 -->
<g id="edge9" class="edge">
<title>6&#45;&gt;4</title>
<path fill="none" stroke="#000000" d="M1442.971,-345.0845C1484.4131,-338.4211 1525.842,-328.7719 1564.1293,-315 1587.6049,-306.5559 1610.7835,-290.5868 1627.8561,-276.9705"/>
<polygon fill="#000000" stroke="#000000" points="1630.2097,-279.5668 1635.7213,-270.5184 1625.77,-274.1548 1630.2097,-279.5668"/>
<text text-anchor="middle" x="1535.1005" y="-333.8" font-family="Times,serif" font-size="14.00" fill="#000000">param</text>
</g>
<!-- 12 -->
<g id="node12" class="node">
<title>12</title>
<ellipse fill="none" stroke="#000000" cx="1655.004" cy="-374" rx="72.7496" ry="18"/>
<text text-anchor="middle" x="1655.004" y="-369.8" font-family="Times,serif" font-size="14.00" fill="#000000">Array{Float64,2}</text>
</g>
<!-- 6&#45;&gt;12 -->
<g id="edge10" class="edge">
<title>6&#45;&gt;12</title>
<path fill="none" stroke="#000000" d="M1418.5796,-364.8049C1474.9493,-366.9972 1529.9839,-369.1377 1572.7513,-370.801"/>
<polygon fill="#000000" stroke="#000000" points="1572.6665,-374.3002 1582.795,-371.1916 1572.9386,-367.3055 1572.6665,-374.3002"/>
<text text-anchor="middle" x="1535.1005" y="-372.8" font-family="Times,serif" font-size="14.00" fill="#000000">jacobian</text>
</g>
<!-- 13 -->
<g id="node13" class="node">
<title>13</title>
<ellipse fill="none" stroke="#000000" cx="1655.004" cy="-428" rx="27.113" ry="18"/>
<text text-anchor="middle" x="1655.004" y="-423.8" font-family="Times,serif" font-size="14.00" fill="#000000">Bool</text>
</g>
<!-- 6&#45;&gt;13 -->
<g id="edge11" class="edge">
<title>6&#45;&gt;13</title>
<path fill="none" stroke="#000000" d="M1401.3693,-365.9048C1430.8036,-369.7173 1460.2112,-374.6457 1488.0717,-381 1496.4405,-382.9087 1497.9148,-385.3273 1506.0717,-388 1544.3585,-400.5452 1589.0972,-412.1636 1619.4719,-419.6097"/>
<polygon fill="#000000" stroke="#000000" points="1618.6486,-423.0114 1629.1922,-421.9702 1620.3006,-416.2091 1618.6486,-423.0114"/>
<text text-anchor="middle" x="1535.1005" y="-406.8" font-family="Times,serif" font-size="14.00" fill="#000000">converged</text>
</g>
<!-- 7 -->
<g id="node7" class="node">
<title>7</title>
<ellipse fill="none" stroke="#000000" cx="355.4079" cy="-245" rx="355.3158" ry="18"/>
<text text-anchor="middle" x="355.4079" y="-240.8" font-family="Times,serif" font-size="14.00" fill="#000000">(LsqFit.LsqFitResult{Array{Float64,1},Array{Float64,1},Array{Float64,2},Array{Float64,1}},)</text>
</g>
<!-- 7&#45;&gt;6 -->
<g id="edge12" class="edge">
<title>7&#45;&gt;6</title>
<path fill="none" stroke="#000000" d="M442.3484,-262.4547C530.5024,-279.64 671.0015,-305.6242 793.4574,-322 839.9639,-328.2193 890.1369,-333.6054 937.4958,-338.0929"/>
<polygon fill="#000000" stroke="#000000" points="937.2733,-341.5873 947.5566,-339.0368 937.9273,-334.6179 937.2733,-341.5873"/>
<text text-anchor="middle" x="752.1366" y="-320.8" font-family="Times,serif" font-size="14.00" fill="#000000">π1</text>
</g>
<!-- 8 -->
<g id="node8" class="node">
<title>8</title>
<ellipse fill="none" stroke="#000000" cx="1140.7646" cy="-142" rx="242.2893" ry="18"/>
<text text-anchor="middle" x="1140.7646" y="-137.8" font-family="Times,serif" font-size="14.00" fill="#000000">NamedTuple{(:β, :r, :n),Tuple{Array{Float64,1},Float64,Int64}}</text>
</g>
<!-- 7&#45;&gt;8 -->
<g id="edge13" class="edge">
<title>7&#45;&gt;8</title>
<path fill="none" stroke="#000000" d="M441.9005,-227.5132C530.0007,-210.2872 670.7265,-184.3826 793.4574,-169 841.5984,-162.9662 893.6735,-158.0626 942.4895,-154.1734"/>
<polygon fill="#000000" stroke="#000000" points="942.8352,-157.6571 952.5301,-153.384 942.2865,-150.6786 942.8352,-157.6571"/>
<text text-anchor="middle" x="752.1366" y="-179.8" font-family="Times,serif" font-size="14.00" fill="#000000">describe</text>
</g>
<!-- 8&#45;&gt;4 -->
<g id="edge14" class="edge">
<title>8&#45;&gt;4</title>
<path fill="none" stroke="#000000" d="M1371.2351,-147.7152C1410.6507,-152.1492 1450.8644,-158.8955 1488.0717,-169 1536.867,-182.2514 1588.1184,-210.4999 1620.7513,-230.5745"/>
<polygon fill="#000000" stroke="#000000" points="1619.1078,-233.6746 1629.4442,-236.0006 1622.8144,-227.7364 1619.1078,-233.6746"/>
<text text-anchor="middle" x="1535.1005" y="-200.8" font-family="Times,serif" font-size="14.00" fill="#000000">β</text>
</g>
<!-- 8&#45;&gt;10 -->
<g id="edge15" class="edge">
<title>8&#45;&gt;10</title>
<path fill="none" stroke="#000000" d="M1268.2102,-126.6343C1382.7438,-112.8254 1543.7788,-93.41 1616.588,-84.6317"/>
<polygon fill="#000000" stroke="#000000" points="1617.165,-88.0876 1626.6741,-83.4156 1616.3271,-81.1379 1617.165,-88.0876"/>
<text text-anchor="middle" x="1535.1005" y="-98.8" font-family="Times,serif" font-size="14.00" fill="#000000">n</text>
</g>
<!-- 14 -->
<g id="node14" class="node">
<title>14</title>
<ellipse fill="none" stroke="#000000" cx="1655.004" cy="-142" rx="37.2594" ry="18"/>
<text text-anchor="middle" x="1655.004" y="-137.8" font-family="Times,serif" font-size="14.00" fill="#000000">Float64</text>
</g>
<!-- 8&#45;&gt;14 -->
<g id="edge16" class="edge">
<title>8&#45;&gt;14</title>
<path fill="none" stroke="#000000" d="M1383.2024,-142C1468.1849,-142 1555.3131,-142 1607.2906,-142"/>
<polygon fill="#000000" stroke="#000000" points="1607.5206,-145.5001 1617.5206,-142 1607.5205,-138.5001 1607.5206,-145.5001"/>
<text text-anchor="middle" x="1535.1005" y="-144.8" font-family="Times,serif" font-size="14.00" fill="#000000">r</text>
</g>
</g>
</svg>
